<svg fill="none" height="34" viewBox="0 0 27 34" width="27" xmlns="http://www.w3.org/2000/svg" xmlns:xlink="http://www.w3.org/1999/xlink"><clipPath id="a"><path d="m0 0h26.943v34h-26.943z"/></clipPath><g clip-path="url(#a)"><path d="m13.62.0169551-.148-.0169551-13.472 1.40827v24.59593l13.473 7.9958 13.43-7.9689.042-.0249v-24.59793zm11.399 12.0780449-11.524-6.77508-.001-.10373-.087.04987-.088-.05585v.10871l-11.394 6.76708v-8.94731l11.548-1.2088 11.547 1.2088v8.95631zm-11.614-5.32592 11.518 6.69532-4.479 2.633-7.093-4.2099-.014 1.4113 5.904 3.5037-.86.5057-5.03-2.9841-.014 1.4112 3.827 2.269-.782.5217-3.031-1.7823-.014 1.4092 1.853 1.0882-1.8 1.0781-11.356-6.7332zm-11.48 8.31802 11.411 6.773.016 1.0413-7.942-4.7155-.015 1.4122 7.979 4.7824.018 1.0731-7.973-4.7275-.013 1.4103 8.021 4.8093.046.0249 8.143-4.8591-.011-5.1634 3.415-2.0306v9.9946l-11.548 6.8538-11.547-6.8528z" fill="#f0c52e"/></g></svg>