<svg fill="none" height="32" viewBox="0 0 32 32" width="32" xmlns="http://www.w3.org/2000/svg"><path d="m16 32c-2.1667 0-4.2396-.4219-6.21875-1.2656-1.97917-.8438-3.68229-1.9792-5.10937-3.4063-1.42709-1.4271-2.5625-3.1302-3.40626-5.1093-.843745-1.9792-1.26562-4.0521-1.26562-6.2188s.421875-4.2396 1.26562-6.21875c.84376-1.97917 1.97917-3.68229 3.40626-5.10937 1.42708-1.42709 3.1302-2.5625 5.10937-3.40626 1.97915-.843745 4.05205-1.26562 6.21875-1.26562s4.2396.421875 6.2188 1.26562c1.9791.84376 3.6822 1.97917 5.1093 3.40626 1.4271 1.42708 2.5625 3.1302 3.4063 5.10937.8437 1.97915 1.2656 4.05205 1.2656 6.21875s-.4219 4.2396-1.2656 6.2188c-.8438 1.9791-1.9792 3.6822-3.4063 5.1093s-3.1302 2.5625-5.1093 3.4063c-1.9792.8437-4.0521 1.2656-6.2188 1.2656zm9.4062-24c-.125.0625-.3124.17708-.5624.34375l-.6094.40625-.5782.3125-.6562.21875c-.7708-.85417-1.7188-1.28125-2.8438-1.28125-2.4374 0-3.6562 1.02083-3.6562 3.0625v1.8437c-3.3542-.1666-5.9271-1.3958-7.71875-3.68745-.52083.54167-.78125 1.13545-.78125 1.78125 0 1.375.51042 2.4167 1.53125 3.125-.125 0-.30208.0104-.53125.0312-.22917.0209-.41146.0209-.54688 0-.13541-.0208-.28645-.0729-.45312-.1562 0 .9583.25521 1.7552.76562 2.3906.51042.6354 1.21355 1.0469 2.10938 1.2344-.2083.25-.5.375-.875.375-.33333 0-.625-.0938-.875-.2812 0 .8124.39062 1.4427 1.1719 1.8906.7812.4479 1.6614.6823 2.6406.7031-.375.5625-.9219.9844-1.6406 1.2656-.7188.2813-1.4844.4219-2.2969.4219-.29167 0-.69271-.0729-1.20312-.2188-.51042-.1458-.77605-.2187-.79688-.2187.33333.6667 1.01562 1.2396 2.04688 1.7187 1.03122.4792 2.33852.7188 3.92192.7188 1.3958 0 2.6979-.2448 3.9062-.7344s2.2396-1.1406 3.0938-1.9531c.8541-.8125 1.5885-1.7396 2.2031-2.7813.6146-1.0416 1.0729-2.1197 1.375-3.2343s.4531-2.2136.4531-3.2969c0-.0417.125-.1302.375-.2656s.5417-.3177.875-.5469.5833-.4687.75-.7187c-1.125 0-1.875.0208-2.25.0624.7292-.4374 1.2812-1.2812 1.6562-2.5312z" fill="#fff" fill-opacity=".3"/></svg>