<svg width="11" height="10" viewBox="0 0 11 10" fill="none" xmlns="http://www.w3.org/2000/svg">
<path fill-rule="evenodd" clip-rule="evenodd" d="M4.5136 3.4188C4.5136 3.60735 4.35198 3.76068 4.15323 3.76068C3.9545 3.76068 3.79288 3.60735 3.79288 3.4188V1.53846C3.79288 0.690171 4.60117 0 5.59469 0H6.49558C7.43522 0 8.11721 0.647008 8.11721 1.53846V3.4188C8.11721 3.60735 7.9555 3.76068 7.75684 3.76068C7.5582 3.76068 7.39649 3.60735 7.39649 3.4188V1.53846C7.39649 1.01923 7.04279 0.683761 6.49558 0.683761H5.59469C5.07477 0.683761 4.5136 1.01051 4.5136 1.53846V3.4188ZM10.5893 2.39316C10.6934 2.39316 10.7928 2.43991 10.8621 2.52171C10.9316 2.6035 10.9645 2.71256 10.9527 2.82137L10.3045 8.78453C10.2923 9.45692 9.76827 10 9.12584 10H2.78431C2.14179 10 1.61773 9.45692 1.60566 8.78461L0.957465 2.82145C0.945578 2.71256 0.978461 2.6035 1.04792 2.52171C1.11729 2.43991 1.21665 2.39316 1.32088 2.39316H3.25233V3.4188C3.25233 3.89009 3.65647 4.2735 4.15323 4.2735C4.64998 4.2735 5.05413 3.89009 5.05413 3.4188V2.39316H6.85593V3.4188C6.85593 3.89009 7.26008 4.2735 7.75683 4.2735C8.25359 4.2735 8.65774 3.89009 8.65774 3.4188V2.39316H10.5893Z" fill="#FFC600"/>
</svg>
