<svg fill="none" height="10" viewBox="0 0 10 10" width="10" xmlns="http://www.w3.org/2000/svg" xmlns:xlink="http://www.w3.org/1999/xlink"><clipPath id="a"><path d="m0 0h10v10h-10z"/></clipPath><g clip-path="url(#a)" fill="#231f20"><path d="m9.86215 2.5217c-.06937-.08179-.16874-.12854-.27288-.12854h-1.93153v1.02564c0 .47128-.40415.8547-.9009.8547-.49676 0-.90091-.38342-.90091-.8547v-1.02564h-1.8018v1.02564c0 .47128-.40414.8547-.9009.8547-.49675 0-.9009-.38342-.9009-.8547v-1.02564h-1.93144c-.104234 0-.203604.04675-.2729731.12854-.0694594.0818-.1023423.19086-.0904504.29975l.6481985 5.96316c.012072.67231.536125 1.21538 1.178645 1.21538h6.34153c.64244 0 1.16649-.54307 1.17865-1.21547l.6482-5.96316c.0118-.1088-.02108-.21786-.09054-.29966z"/><path d="m3.15333 3.76068c.19874 0 .36036-.15333.36036-.34188v-1.88034c0-.52795.56117-.854699 1.08108-.854699h.9009c.54721 0 .9009.335469.9009.854699v1.88034c0 .18855.16172.34188.36036.34188.19865 0 .36036-.15333.36036-.34188v-1.88034c0-.891451-.68198-1.53846-1.62162-1.53846h-.9009c-.99351 0-1.8018.690171-1.8018 1.53846v1.88034c0 .18855.16162.34188.36036.34188z"/></g></svg>