<svg fill="none" height="32" viewBox="0 0 32 32" width="32" xmlns="http://www.w3.org/2000/svg"><path d="m21 16c0 1.3261-.5268 2.5979-1.4645 3.5355-.9376.9377-2.2094 1.4645-3.5355 1.4645s-2.5979-.5268-3.5355-1.4645c-.9377-.9376-1.4645-2.2094-1.4645-3.5355 0-.285.03-.5633.0817-.8333h-1.74837v6.6616c0 .4634.375.8384.83837.8384h11.6583c.2221-.0005.4349-.089.5917-.2462.1569-.1571.245-.3701.245-.5922v-6.6616h-1.7484c.0517.27.0817.5483.0817.8333zm-5 3.3333c.4378-.0001.8714-.0864 1.2759-.2541.4044-.1676.7719-.4133 1.0815-.723.3095-.3097.555-.6773.7225-1.0819.1674-.4045.2535-.8381.2534-1.276-.0001-.4378-.0864-.8714-.2541-1.2758-.1676-.4045-.4133-.772-.723-1.0815-.3097-.3096-.6773-.5551-1.0819-.7225-.4045-.1675-.8381-.2536-1.276-.2535-.8842.0002-1.7322.3517-2.3573.9771-.6252.6255-.9762 1.4736-.976 2.3579s.3517 1.7322.9771 2.3574c.6255.6251 1.4736.9762 2.3579.9759zm4-6.8333h1.9983c.1328 0 .2601-.0526.3542-.1463.094-.0938.1471-.2209.1475-.3537v-1.9983c0-.13308-.0529-.26068-.1469-.35477-.0941-.09408-.2217-.14693-.3548-.14693h-1.9983c-.1331 0-.2607.05285-.3547.14693-.0941.09409-.147.22169-.147.35477v1.9983c.0017.275.2267.5.5017.5zm-4-12.5c-4.2435 0-8.31313 1.68571-11.31371 4.68629s-4.68629 7.07021-4.68629 11.31371 1.68571 8.3131 4.68629 11.3137 7.07021 4.6863 11.31371 4.6863c2.1012 0 4.1817-.4139 6.1229-1.2179 1.9412-.8041 3.7051-1.9827 5.1908-3.4684s2.6643-3.2496 3.4684-5.1908c.804-1.9412 1.2179-4.0217 1.2179-6.1229 0-2.1011-.4139-4.1817-1.2179-6.12294-.8041-1.9412-1.9827-3.70503-3.4684-5.19077s-3.2496-2.66429-5.1908-3.46836c-1.9412-.804078-4.0217-1.21793-6.1229-1.21793zm8.3333 22.4817c0 1.0183-.8333 1.8516-1.8516 1.8516h-12.96337c-1.01833 0-1.85166-.8333-1.85166-1.8516v-12.96337c0-1.01833.83333-1.85166 1.85166-1.85166h12.96337c1.0183 0 1.8516.83333 1.8516 1.85166z" fill="#fff" fill-opacity=".3"/></svg>